<?xml version="1.0" encoding="UTF-8" standalone="no"?>
<svg xmlns="http://www.w3.org/2000/svg" height="96" width="96" version="1.1" xmlns:xlink="http://www.w3.org/1999/xlink">
 <defs>
  <linearGradient id="g" stop-color="#fff">
   <stop offset="0"/>
   <stop stop-opacity="0" offset="1"/>
  </linearGradient>
  <clipPath id="j">
   <path d="m12 6c-3.324 0-6 2.676-6 6v72c0 3.324 2.676 6 6 6h12v-84h-12z" fill="#f00"/>
  </clipPath>
  <filter id="f" height="1.384" width="1.384" color-interpolation-filters="sRGB" y="-.192" x="-.192">
   <feGaussianBlur stdDeviation="5.28"/>
  </filter>
  <clipPath id="i">
   <path d="m24 6v84h60c3.324 0 6-2.676 6-6v-72c0-3.324-2.676-6-6-6h-60z" fill="#f0f"/>
  </clipPath>
  <linearGradient id="p" stop-color="#fff" y2="48" gradientUnits="userSpaceOnUse" x2="8" y1="16" x1="8">
   <stop offset="0"/>
   <stop stop-opacity="0" offset="1"/>
  </linearGradient>
  <linearGradient id="l" y2="8" gradientUnits="userSpaceOnUse" x2="16" y1="88" x1="16">
   <stop stop-color="#1a3a74" offset="0"/>
   <stop stop-color="#235bc3" offset="1"/>
  </linearGradient>
  <linearGradient id="k" y2="5.9877" gradientUnits="userSpaceOnUse" x2="48" y1="90" x1="48">
   <stop stop-color="#e6e6e6" offset="0"/>
   <stop stop-color="#f5f5f5" offset="1"/>
  </linearGradient>
  <linearGradient id="e" y2="138.66" xlink:href="#g" gradientUnits="userSpaceOnUse" x2="48" y1="20.221" x1="48"/>
  <linearGradient id="d" y2="63.893" xlink:href="#g" gradientUnits="userSpaceOnUse" x2="36.357" y1="6" x1="36.357"/>
  <radialGradient id="h" stop-color="#fff" gradientUnits="userSpaceOnUse" cy="90.172" cx="48" gradientTransform="matrix(1.1573 0 0 .99591 -7.551 .19713)" r="42">
   <stop offset="0"/>
   <stop stop-opacity="0" offset="1"/>
  </radialGradient>
  <linearGradient id="b" y2="7.0165" gradientUnits="userSpaceOnUse" x2="45.448" gradientTransform="matrix(1.0059 0 0 .99417 100 0)" y1="92.54" x1="45.448">
   <stop offset="0"/>
   <stop stop-opacity=".58824" offset="1"/>
  </linearGradient>
  <linearGradient id="o" y2="6" xlink:href="#b" gradientUnits="userSpaceOnUse" x2="32.251" gradientTransform="translate(.03125 -97.031)" y1="90" x1="32.251"/>
  <linearGradient id="n" y2="6" xlink:href="#b" gradientUnits="userSpaceOnUse" x2="32.251" gradientTransform="matrix(1.0238 0 0 1.0119 -1.1116 -98.103)" y1="90" x1="32.251"/>
  <linearGradient id="m" y2="90.239" xlink:href="#b" gradientUnits="userSpaceOnUse" x2="32.251" gradientTransform="matrix(1.0238 0 0 -1.0119 -1.1116 98.103)" y1="6.1317" x1="32.251"/>
 </defs>
 <g fill="url(#m)">
  <path opacity="0.08" d="m12.031 95.062c-5.5108 0-10.031-4.52-10.031-10.031v-71c0-5.5108 4.5202-10.031 10.031-10.031h72c5.511 0 10.031 4.5202 10.031 10.031v71c0 5.5111-4.5202 10.031-10.031 10.031h-72z"/>
  <path opacity=".1" d="m12.031 94.062c-4.9714 0-9.031-4.059-9.031-9.031v-71c0-4.9714 4.0596-9.031 9.031-9.031h72c4.9716 0 9.0312 4.0596 9.0312 9.0312v71c0 4.9716-4.0596 9.0312-9.0312 9.0312h-72z"/>
  <path opacity=".2" d="m12.031 93.031c-4.4091 0-8-3.5909-8-8v-71c0-4.4091 3.5909-8 8-8h72c4.4091 0 8 3.5909 8 8v71c0 4.4091-3.5909 8-8 8h-72z"/>
 </g>
 <rect opacity=".3" rx="7" ry="7" height="85" width="86" y="7" x="5" fill="url(#n)"/>
 <rect opacity=".45" rx="6" ry="6" height="84" width="84" y="7" x="6" fill="url(#o)"/>
 <path d="m24 6v84h60c3.324 0 6-2.676 6-6v-72c0-3.324-2.676-6-6-6h-60z" fill="url(#k)"/>
 <path d="m12 6c-3.324 0-6 2.676-6 6v72c0 3.324 2.676 6 6 6h12v-84h-12z" fill="url(#l)"/>
 <rect opacity=".5" clip-path="url(#i)" rx="12" ry="12" height="66" filter="url(#f)" width="66" stroke="#fff" stroke-linecap="round" y="15" x="15" stroke-width=".5" fill="url(#e)"/>
 <rect opacity=".1" clip-path="url(#j)" rx="12" ry="12" height="66" filter="url(#f)" width="66" stroke="#fff" stroke-linecap="round" y="15" x="15" stroke-width=".5" fill="url(#e)"/>
 <text font-size="26.063px" y="34" x="27.87274" font-family="DejaVu Serif" fill="#1b3d7a">W</text>
 <rect opacity=".5" height="84" width="1" y="6" x="24" fill="#fff"/>
 <rect opacity=".05" height="84" width="1" y="6" x="23" fill="#fff"/>
 <path opacity=".5" d="m10 14c-1.108 0-2 0.892-2 2v10c0 1.108 0.892 2 2 2h6v-4l-4.0312-0.03125v-5.9688h6.031v4h4v-6c0-1.108-0.892-2-2-2h-10zm8 10v4h4v-4h-4z" fill="url(#p)"/>
 <path opacity=".5" d="m24 6v2h60c2.7818 0 5 2.2182 5 5v72c0 0.3643-0.05212 0.72099-0.125 1.0625-0.04415 0.20689-0.08838 0.39766-0.15625 0.59375-0.0077 0.02195-0.0233 0.04069-0.03125 0.0625-0.06274 0.17374-0.13838 0.36745-0.21875 0.53125-0.04158 0.0828-0.07904 0.16995-0.125 0.25-0.0546 0.09721-0.12677 0.18835-0.1875 0.28125-0.09411 0.14096-0.20492 0.276-0.3125 0.40625-0.14317 0.17445-0.30314 0.347-0.46875 0.5-0.01117 0.0102-0.01998 0.02115-0.03125 0.03125-0.13839 0.12556-0.28509 0.23444-0.4375 0.34375-0.10257 0.07315-0.20432 0.15336-0.3125 0.21875-0.0074 0.0045-0.02384-0.0044-0.03125 0-0.23204 0.13873-0.46255 0.27478-0.71875 0.375 0.30153-0.0968 0.59646-0.20414 0.875-0.34375 0.55709-0.27922 1.0601-0.66569 1.5-1.0938 0.21997-0.21403 0.40937-0.44186 0.59375-0.6875s0.35541-0.50774 0.5-0.78125c0.14012-0.26505 0.27614-0.52473 0.375-0.8125 0.01041-0.03078 0.02133-0.06274 0.03125-0.09375 0.09046-0.27808 0.1388-0.5794 0.1875-0.875 0.053-0.318 0.094-0.634 0.094-0.969v-72c0-3.324-2.676-6-6-6h-60z" fill="url(#d)"/>
 <path opacity=".4" d="m12 90c-3.324 0-6-2.676-6-6v-72c0-0.33472 0.04135-0.6507 0.09375-0.96875 0.0487-0.2956 0.09704-0.59692 0.1875-0.875 0.0099-0.03 0.0209-0.063 0.0313-0.094 0.0989-0.2873 0.2349-0.547 0.375-0.812 0.1446-0.2735 0.3156-0.5356 0.5-0.7812 0.1844-0.2457 0.3738-0.4735 0.5937-0.6876 0.44-0.428 0.943-0.8145 1.5-1.0937 0.2786-0.1396 0.5735-0.2469 0.8748-0.3437-0.256 0.1002-0.4865 0.2362-0.7185 0.375-0.00741 0.0044-0.023866-0.0045-0.03125 0-0.031933 0.0193-0.062293 0.04251-0.09375 0.0625-0.1204 0.0767-0.23102 0.16351-0.34375 0.25-0.10617 0.0808-0.21328 0.16111-0.3125 0.25-0.1779 0.1614-0.3474 0.3453-0.5 0.5312-0.1075 0.1303-0.2183 0.2653-0.3124 0.4063-0.0251 0.0383-0.0385 0.0858-0.0626 0.125-0.0647 0.103-0.1302 0.2045-0.1874 0.3124-0.1011 0.1948-0.2057 0.4158-0.2813 0.625-0.008 0.0219-0.0236 0.0406-0.0313 0.0626-0.0318 0.0919-0.0358 0.1868-0.0624 0.2812-0.0304 0.1066-0.0704 0.203-0.0938 0.3125-0.0729 0.3415-0.125 0.6985-0.125 1.0625v72c0 2.7818 2.2182 5 5 5h72c2.7818 0 5-2.2182 5-5v-72c0-0.364-0.052-0.721-0.125-1.0625-0.044-0.2069-0.088-0.3977-0.156-0.5937-0.008-0.022-0.024-0.0407-0.031-0.0626-0.063-0.1737-0.139-0.3674-0.219-0.5312-0.042-0.0828-0.079-0.17-0.125-0.25-0.055-0.0972-0.127-0.1884-0.188-0.2812-0.094-0.141-0.205-0.276-0.312-0.4063-0.143-0.1745-0.303-0.347-0.469-0.5-0.011-0.0102-0.02-0.0211-0.031-0.0313-0.139-0.1255-0.285-0.2344-0.438-0.3437-0.102-0.0731-0.204-0.1534-0.312-0.2187-0.0074-0.0045-0.02384 0.0044-0.03125 0-0.23204-0.13873-0.46255-0.27478-0.71875-0.375 0.30153 0.0968 0.59646 0.20414 0.875 0.34375 0.55709 0.27922 1.0601 0.66569 1.5 1.0938 0.21997 0.21403 0.40937 0.44186 0.59375 0.6875s0.35541 0.50774 0.5 0.78125c0.14012 0.26505 0.27614 0.52473 0.375 0.8125 0.01041 0.03078 0.02133 0.06274 0.03125 0.09375 0.09046 0.27808 0.1388 0.5794 0.1875 0.875 0.053 0.318 0.094 0.634 0.094 0.969v72c0 3.324-2.676 6-6 6h-72z" fill="url(#h)"/>
 <path opacity=".3" d="m12 6c-3.324 0-6 2.676-6 6v72c0 0.33472 0.04135 0.6507 0.09375 0.96875 0.033021 0.20043 0.079068 0.39709 0.125 0.59375 0.019951 0.07449 0.039796 0.14545 0.0625 0.21875 0.0058 0.0192-0.00618 0.04351 0 0.0625 0.00988 0.03038 0.020892 0.0636 0.03125 0.09375 0.018567 0.05405 0.041531 0.10396 0.0625 0.15625 0.090684 0.22612 0.1987 0.44098 0.3125 0.65625 0.14459 0.27351 0.31562 0.53562 0.5 0.78125 0.18438 0.24564 0.37378 0.47347 0.59375 0.6875 0.43995 0.42806 0.94291 0.81453 1.5 1.0938 0.27854 0.13961 0.57347 0.24695 0.875 0.34375-0.2562-0.10022-0.48671-0.23627-0.71875-0.375-0.00741-0.0044-0.023866 0.0045-0.03125 0-0.0319-0.019-0.0622-0.042-0.0937-0.062-0.1204-0.077-0.231-0.164-0.3437-0.25-0.1062-0.081-0.2133-0.161-0.3126-0.25-0.1778-0.161-0.3473-0.345-0.4999-0.53-0.1075-0.131-0.2183-0.266-0.3124-0.407-0.0251-0.038-0.0385-0.086-0.0626-0.125-0.0647-0.103-0.1302-0.204-0.1874-0.312-0.1011-0.195-0.2057-0.416-0.2813-0.625-0.008-0.022-0.0236-0.041-0.0313-0.063-0.0318-0.092-0.0358-0.187-0.0624-0.281-0.0304-0.107-0.0704-0.203-0.0938-0.313-0.0729-0.341-0.125-0.698-0.125-1.062v-72c0-2.782 2.2182-5 5-5h12v-2h-12z" fill="url(#d)"/>
 <g font-size="2.5px" font-family="Serif" fill="#000000">
  <g style="text-anchor:end;text-align:end">
   <text y="41.935059" x="84.103996">consectetuer</text>
   <text y="45.925037" x="84.103996">Integer</text>
   <text y="49.915058" x="84.103996">vitae,</text>
   <text y="53.90554" x="84.103996">elit</text>
   <text y="65.874649" x="84.103996">vulputate</text>
   <text y="69.864647" x="84.103996">libero.</text>
   <text y="73.854652" x="84.103996">id.</text>
   <text y="77.84465" x="84.103996">tempor.</text>
  </g>
  <text y="41.935059" x="28.001389">Lorem</text>
  <text y="45.925037" x="28.001389">adipiscing</text>
  <text y="49.915058" x="28.001389">accumsan.</text>
  <text y="53.90554" x="28.001389">dignissim</text>
  <text y="57.894642" x="28.001389">neque</text>
  <text y="65.874649" x="28.001389">Morbi</text>
  <text y="69.864647" x="28.001389">turpis.</text>
  <text y="73.854652" x="28.001389">Etiam</text>
  <text y="77.84465" x="28.001389">Mauris</text>
  <text y="81.834648" x="28.001389">Etiam</text>
  <text y="17.944019" x="58.290386">Lorem</text>
  <text y="21.93401" x="58.290386">sit</text>
  <text y="25.924049" x="58.290386">consectetuer</text>
  <text y="29.913651" x="58.290386">adipiscing</text>
  <text y="33.903648" x="58.290386">nunc</text>
  <g style="text-anchor:middle;text-align:center">
   <text y="41.935059" x="41.620956">ipsum</text>
   <text y="41.935059" x="50.517658">dolor</text>
   <text y="41.935059" x="57.147305">sit</text>
   <text y="41.935059" x="63.788155">amet,</text>
   <text y="45.925037" x="45.134171">elit.</text>
   <text y="45.925037" x="54.349869">Mauris</text>
   <text y="45.925037" x="62.388988">et</text>
   <text y="45.925037" x="69.484161">dolor.</text>
   <text y="49.915058" x="45.667873">Mauris</text>
   <text y="49.915058" x="52.341805">sit</text>
   <text y="49.915058" x="57.316216">urna</text>
   <text y="49.915058" x="63.684986">sem,</text>
   <text y="49.915058" x="72.086807">suscipit</text>
   <text y="53.90554" x="41.887405">id,</text>
   <text y="53.90554" x="48.704029">ultrices</text>
   <text y="53.90554" x="56.323978">sed,</text>
   <text y="53.90554" x="62.790127">nunc.</text>
   <text y="53.90554" x="70.579544">Etiam</text>
   <text y="53.90554" x="77.235115">non</text>
   <text y="57.894642" x="37.162312">ac</text>
   <text y="57.894642" x="40.821331">mi</text>
   <text y="57.894642" x="49.788963">vestibulum</text>
   <text y="65.874649" x="38.345844">a</text>
   <text y="65.874649" x="45.600231">mauris.</text>
   <text y="65.874649" x="56.763988">Aenean</text>
   <text y="65.874649" x="67.140732">luctus</text>
   <text y="69.864647" x="41.636597">Donec</text>
   <text y="69.864647" x="53.20295">interdum</text>
   <text y="69.864647" x="67.475464">vestibulum</text>
   <text y="73.854652" x="38.148312">non</text>
   <text y="73.854652" x="44.761456">neque</text>
   <text y="73.854652" x="50.507656">ac</text>
   <text y="73.854652" x="54.227825">mi</text>
   <text y="73.854652" x="63.257465">vestibulum</text>
   <text y="73.854652" x="75.512657">placerat</text>
   <text y="77.84465" x="39.286125">sed</text>
   <text y="77.84465" x="45.085804">nulla</text>
   <text y="77.84465" x="51.40173">quis</text>
   <text y="77.84465" x="56.904705">nisi</text>
   <text y="77.84465" x="65.31945">interdum</text>
   <text y="77.84465" x="72.895157">ac</text>
   <text y="81.834648" x="38.49107">urna</text>
   <text y="81.834648" x="44.662979">sem,</text>
   <text y="81.834648" x="52.867809">suscipit</text>
   <text y="17.944019" x="70.626053">ipsum</text>
   <text y="17.944019" x="78.238663">dolor</text>
   <text y="21.93401" x="65.029434">amet,</text>
   <text y="21.93401" x="75.747467">vestibulum</text>
   <text y="25.924049" x="76.602722">urna</text>
   <text y="25.924049" x="81.198051">id</text>
   <text y="29.913651" x="73.524162">elit.</text>
   <text y="29.913651" x="80.203049">Etiam</text>
   <text y="33.903648" x="66.895523">vel,</text>
   <text y="33.903648" x="74.03775">rutrum</text>
   <text y="33.903648" x="80.280167">et.</text>
   <text y="57.894642" x="62.759861">placerat.</text>
   <text y="81.834648" x="61.825466">vitae.</text>
  </g>
 </g>
</svg>
